<svg width="48" height="48" viewBox="0 0 48 48" fill="none" xmlns="http://www.w3.org/2000/svg">
<path fill-rule="evenodd" clip-rule="evenodd" d="M2 7H2.75H29.4434H30.1934V7.75V13.0619H37.1827H37.6587L37.8613 13.4927L42.9601 24.3332L46.5579 25.9385L47.0023 26.1368V26.6234V35.5621V36.3121H46.2523H43.0637C42.8108 38.9427 40.5943 40.9996 37.8974 40.9996C35.2005 40.9996 32.984 38.9427 32.7311 36.3121H29.4463H28.6964V36.312H16.2708C16.0179 38.9426 13.8014 40.9996 11.1044 40.9996C8.40751 40.9996 6.191 38.9426 5.93811 36.312H2.75H2V35.562V25.6756V7.75V7ZM32.8027 34.8121C33.2676 32.4226 35.3719 30.6188 37.8974 30.6188C40.4229 30.6188 42.5272 32.4226 42.9921 34.8121H45.5023V27.1101L41.7528 25.437H30.1954L30.1962 34.8121H32.8027ZM28.6934 34.812H16.1991C15.7342 32.4225 13.6299 30.6188 11.1044 30.6188C8.57894 30.6188 6.47473 32.4225 6.00975 34.812H3.5V26.4256L28.6934 26.4256V34.812ZM28.6934 8.5V24.9256L3.5 24.9256V8.5H28.6934ZM30.1954 14.5619V23.937H41.1162L36.7066 14.5619H30.1954ZM11.1044 39.4996C13.1426 39.4996 14.7948 37.8473 14.7948 35.8092C14.7948 33.771 13.1426 32.1188 11.1044 32.1188C9.0663 32.1188 7.41406 33.771 7.41406 35.8092C7.41406 37.8473 9.0663 39.4996 11.1044 39.4996ZM41.5878 35.8092C41.5878 37.8473 39.9356 39.4996 37.8974 39.4996C35.8593 39.4996 34.207 37.8473 34.207 35.8092C34.207 33.771 35.8593 32.1188 37.8974 32.1188C39.9356 32.1188 41.5878 33.771 41.5878 35.8092Z" fill="black"/>
</svg>
