<svg width="48" height="48" viewBox="0 0 48 48" fill="none" xmlns="http://www.w3.org/2000/svg">
<path fill-rule="evenodd" clip-rule="evenodd" d="M3.75 4H3V4.75V18.2097V35.75V36.5H3.75H13.5031V42.57V43.9968L14.6784 43.1878L24.3932 36.5H44.2497H44.9997V35.75V4.75V4H44.2497H17.8552H3.75ZM4.5 18.2097V5.5H17.8552H43.4997V35H24.16H23.9269L23.7348 35.1322L15.0031 41.1432V35.75V35H14.2531H4.5V18.2097ZM11 16H11.75H35.25H36V17.5H35.25H11.75H11V16ZM11 24H11.75H27.25H28V25.5H27.25H11.75H11V24Z" fill="black"/>
</svg>
