<svg width="48" height="48" viewBox="0 0 48 48" fill="none" xmlns="http://www.w3.org/2000/svg">
<path fill-rule="evenodd" clip-rule="evenodd" d="M30.6404 5.86521C29.1632 7.33662 28.249 9.37284 28.249 11.6226C28.249 16.1106 31.8869 19.7486 36.3744 19.7486C40.8619 19.7486 44.4998 16.1106 44.4998 11.6226C44.4998 7.13468 40.8619 3.49658 36.3744 3.49658C34.1912 3.49658 32.209 4.35772 30.7491 5.7589V5.86521H30.6404ZM28.6598 5.86521C27.4597 7.47091 26.749 9.46378 26.749 11.6226C26.749 16.9389 31.0584 21.2486 36.3744 21.2486C38.6008 21.2486 40.6507 20.4927 42.2813 19.2235V36.3518H30.5979H29.8479V37.1018V42.6806L19.1341 36.4533L18.9594 36.3518H18.7573H5.49609V5.86521H28.6598ZM30.0508 4.36521H29.9991H4.74609H3.99609V5.11521V37.1018V37.8518H4.74609H18.5551L30.221 44.6325L31.3479 45.2875V43.9841V37.8518H43.0313H43.7813V37.1018V18.5V17.7705C45.1668 16.103 45.9998 13.9601 45.9998 11.6226C45.9998 6.30635 41.6905 1.99658 36.3744 1.99658C33.954 1.99658 31.7422 2.89006 30.0508 4.36521ZM41.3929 9.02223L40.7747 9.67631L35.5556 15.1982L34.895 15.8973L34.2413 15.1917L31.5719 12.3101L30.9603 11.6499L32.2808 10.4266L32.8924 11.0869L34.9082 13.2628L39.4666 8.4399L40.0848 7.78582L41.3929 9.02223ZM11.0603 17.7842H10.3103V19.2842H11.0603H20.3345H21.0845V17.7842H20.3345H11.0603ZM11.0603 24.8688H10.3103V26.3688H11.0603H27.3321H28.0821V24.8688H27.3321H11.0603Z" fill="black"/>
</svg>
