<svg width="48" height="48" viewBox="0 0 48 48" fill="none" xmlns="http://www.w3.org/2000/svg">
<path fill-rule="evenodd" clip-rule="evenodd" d="M3.75 4H3V4.75V18.2097V35.75V36.5H3.75H13.5031V42.57V43.9968L14.6784 43.1878L24.3932 36.5H44.2497H44.9997V35.75V16.25V15.5H43.4997V16.25V35H24.16H23.9269L23.7348 35.1322L15.0031 41.1432V35.75V35H14.2531H4.5V18.2097V5.5H17.8552H33.0525H33.8025V4H33.0525H17.8552H3.75ZM40.1443 4.00184L40.6746 4.53217L44.4736 8.3311L45.0039 8.86143L44.4736 9.39176L30.6048 23.2605L30.4411 23.4242L30.2136 23.4672L25.5312 24.3506L24.4515 24.5543L24.6552 23.4745L25.5386 18.7922L25.5815 18.5647L25.7452 18.4009L39.614 4.53217L40.1443 4.00184ZM40.1443 6.12316L37.6922 8.57528L40.4305 11.3136L42.8826 8.86143L40.1443 6.12316ZM26.9696 19.2978L36.6315 9.63594L39.3698 12.3742L29.7079 22.0361L26.3329 22.6729L26.9696 19.2978Z" fill="black"/>
</svg>
