<svg width="48" height="48" viewBox="0 0 48 48" fill="none" xmlns="http://www.w3.org/2000/svg">
<path fill-rule="evenodd" clip-rule="evenodd" d="M10.75 2H10V2.75V45.25V46H10.75H23.2598V46H24.7598V45.25V30.8293L29.4141 35.344L29.9524 35.8662L30.9968 34.7895L30.4585 34.2673L24.5196 28.5066L23.9974 28L23.4752 28.5066L17.5364 34.2673L16.9981 34.7895L18.0424 35.8662L18.5808 35.344L23.2598 30.8053V44.5H11.5V3.5H36.5V44.5H28V46H37.25H38V45.25V2.75V2H37.25H10.75ZM20 6H20.75L27.25 6H28V7.5H27.25L20.75 7.5H20V6Z" fill="black"/>
</svg>
