<svg width="48" height="48" viewBox="0 0 48 48" fill="none" xmlns="http://www.w3.org/2000/svg">
<path fill-rule="evenodd" clip-rule="evenodd" d="M15.3745 13.3289C15.3745 17.6797 18.8558 21.1578 23.2264 21.1578C27.597 21.1578 31.0784 17.6797 31.0784 13.3289C31.0784 8.97809 27.597 5.5 23.2264 5.5C18.8558 5.5 15.3745 8.97809 15.3745 13.3289ZM13.8745 13.3289C13.8745 18.5116 18.0309 22.6578 23.2264 22.6578C28.4219 22.6578 32.5784 18.5116 32.5784 13.3289C32.5784 8.14617 28.4219 4 23.2264 4C18.0309 4 13.8745 8.14617 13.8745 13.3289ZM6.75 25.6376H6V26.3876V43.2509V44.0009H7.5V43.2509V27.1376H20.3291L18.4923 39.0987L18.4311 39.4972L18.7298 39.7681L22.7327 43.3983L23.2366 43.8553L23.7404 43.3983L27.7433 39.7681L28.042 39.4972L27.9808 39.0987L26.1441 27.1376H38.5V43.2509V44.0009H40V43.2509V26.3876V25.6376H39.25H6.75ZM24.6265 27.1376H21.8467L20.0361 38.9278L23.2366 41.8303L26.437 38.9278L24.6265 27.1376ZM40.979 20.7036L40.4487 20.1733C36.43 16.1546 36.3382 9.6915 40.1664 5.55071L40.6755 5L41.7769 6.01827L41.2678 6.56898C37.983 10.122 38.0638 15.6671 41.5093 19.1126L42.0397 19.643L40.979 20.7036ZM44.9439 16.7388L44.4135 16.2085C42.5946 14.3895 42.4924 11.5111 44.0974 9.56399L44.5745 8.98526L45.7319 9.93934L45.2549 10.5181C44.1346 11.8772 44.2092 13.8828 45.4742 15.1478L46.0045 15.6781L44.9439 16.7388Z" fill="black"/>
</svg>
