<svg width="48" height="48" viewBox="0 0 48 48" fill="none" xmlns="http://www.w3.org/2000/svg">
<path fill-rule="evenodd" clip-rule="evenodd" d="M9.24902 8H8.49902V9.5H9.24902H11.249L11.249 38.5H9.24902H8.49902V40H9.24902H14.749H15.499V38.5H14.749H12.749L12.749 9.5H14.749H15.499V8H14.749H9.24902ZM1.99609 11.9999H2.74609H7.24902H7.99902V13.4999H7.24902H3.49609V34.4999H7.24902H7.99902V35.9999H7.24902H2.74609H1.99609V35.2499V12.7499V11.9999ZM15.999 11.9999H16.749H45.2461H45.9961V12.7499V35.2499V35.9999H45.2461H16.749H15.999V34.4999H16.749H44.4961V13.4999H16.749H15.999V11.9999ZM21.7988 27.5498H21.0488V29.0498H21.7988H28.2988H29.0488V27.5498H28.2988H21.7988ZM32.7988 27.5498H32.0488V29.0498H32.7988H39.2988H40.0488V27.5498H39.2988H32.7988Z" fill="black"/>
</svg>
