<svg width="48" height="48" viewBox="0 0 48 48" fill="none" xmlns="http://www.w3.org/2000/svg">
<path fill-rule="evenodd" clip-rule="evenodd" d="M13.25 4C17.4496 4 21.4114 5.91892 24.0147 9.19651C26.6181 5.91892 30.5799 4 34.7795 4H35.5295V4.75V10.5001H43.2504H44.0004V11.2501V18.7501V19.5001H43.2504H42V43.2501V44.0001H41.25H6.75H6V43.2501V19.5001H4.75H4V18.7501V11.2501V10.5001H4.75H12.5V4.75V4H13.25ZM14 5.52294C17.5724 5.74179 20.8859 7.51593 23.0484 10.3992L23.1232 10.499H14V5.52294ZM34.0295 5.52294C30.4571 5.74179 27.1435 7.51593 24.9811 10.3992L24.9062 10.499H34.0295V5.52294ZM40.5 19.5001H24.75V42.5001H40.5V19.5001ZM41.25 18.0001H24.75V12.0001H42.5004V18.0001H42H41.25ZM23.25 18.0001V12.0001H5.5V18.0001H6H6.75H23.25ZM23.25 42.5001V19.5001H7.5V42.5001H23.25Z" fill="black"/>
</svg>
