<svg width="48" height="48" viewBox="0 0 48 48" fill="none" xmlns="http://www.w3.org/2000/svg">
<path fill-rule="evenodd" clip-rule="evenodd" d="M42.9611 3.5909C42.2967 2.95716 41.3938 2.8978 40.5878 3.11159C39.7836 3.32488 38.9646 3.82825 38.2538 4.51406L36.8435 5.76402L36.7183 5.87493L24.453 5.87493L24.1424 5.87493L23.9227 6.0946L2.53033 27.487L2 28.0173L2.53033 28.5476L17.9151 43.9324L18.4454 44.4627L18.9757 43.9324L40.3681 22.54L40.5878 22.3203V22.0097V9.77968C40.9729 9.53601 41.3335 9.30227 41.6565 9.0853C42.2984 8.65413 42.8649 8.2421 43.1505 7.93568C43.8384 7.19755 44.0816 6.35087 43.9806 5.54316C43.8828 4.76168 43.472 4.07817 42.9611 3.5909ZM40.5878 7.99473C40.6674 7.9422 40.7449 7.89063 40.8201 7.84012C41.4885 7.39116 41.9054 7.07156 42.0532 6.913C42.4486 6.48869 42.5362 6.08098 42.4922 5.72943C42.4449 5.35165 42.2348 4.97101 41.9258 4.67634C41.7704 4.52812 41.4786 4.42718 40.9723 4.56146C40.4689 4.69499 39.8627 5.04341 39.2856 5.60296L39.2735 5.61465L39.261 5.6258L38.9799 5.87493H39.8378L40.5878 5.87493V6.62493V7.99473ZM37.2874 7.37493H39.0878V8.94821C38.8972 9.06595 38.7023 9.18538 38.5043 9.30581C37.5851 9.86496 36.607 10.4416 35.7034 10.965C35.6825 10.9429 35.6612 10.921 35.6395 10.8994C34.3311 9.59094 32.2097 9.59094 30.9013 10.8994C29.5929 12.2078 29.5929 14.3291 30.9013 15.6375C32.2097 16.946 34.3311 16.946 35.6395 15.6375C36.5542 14.7229 36.8294 13.4109 36.4653 12.2571C37.3103 11.7676 38.2199 11.2319 39.0878 10.7063V21.699L18.4454 42.3414L4.12132 28.0173L24.7637 7.37493L37.269 7.37493L37.2771 7.38404L37.2874 7.37493ZM34.3314 11.7521C34.0602 11.9061 33.8064 12.0493 33.5756 12.1786L32.9214 12.5453L33.6547 13.8538L34.309 13.4871C34.5517 13.3511 34.8195 13.1999 35.1064 13.0369C35.175 13.5844 34.9992 14.1566 34.5789 14.5769C33.8562 15.2995 32.6846 15.2995 31.962 14.5769C31.2394 13.8543 31.2394 12.6826 31.962 11.96C32.6069 11.3151 33.6096 11.2457 34.3314 11.7521ZM23.5946 17.0012V16.2512H22.0946V17.0012V31.0025V31.7525H23.5946V31.0025V17.0012ZM16.6845 23.1786C16.6845 22.4717 17.2581 21.8977 17.9668 21.8977C18.6754 21.8977 19.249 22.4717 19.249 23.1786C19.249 23.8856 18.6754 24.4595 17.9668 24.4595C17.2581 24.4595 16.6845 23.8856 16.6845 23.1786ZM17.9668 20.3977C16.4306 20.3977 15.1845 21.6423 15.1845 23.1786C15.1845 24.7149 16.4306 25.9595 17.9668 25.9595C19.5029 25.9595 20.749 24.7149 20.749 23.1786C20.749 21.6423 19.5029 20.3977 17.9668 20.3977ZM27.9628 22.7183C27.2542 22.7183 26.6806 23.2922 26.6806 23.9992C26.6806 24.7061 27.2542 25.2801 27.9628 25.2801C28.6715 25.2801 29.2451 24.7061 29.2451 23.9992C29.2451 23.2922 28.6715 22.7183 27.9628 22.7183ZM25.1806 23.9992C25.1806 22.4629 26.4267 21.2183 27.9628 21.2183C29.499 21.2183 30.7451 22.4629 30.7451 23.9992C30.7451 25.5355 29.499 26.7801 27.9628 26.7801C26.4267 26.7801 25.1806 25.5355 25.1806 23.9992Z" fill="black"/>
</svg>
