<svg width="48" height="48" viewBox="0 0 48 48" fill="none" xmlns="http://www.w3.org/2000/svg">
<path fill-rule="evenodd" clip-rule="evenodd" d="M35.6497 4.53033L35.1193 4L34.589 4.53033L6.03825 33.0811L5.87451 33.2448L5.83158 33.4724L4.01301 43.1116C3.96706 43.3551 4.04441 43.6057 4.21968 43.7809C4.39495 43.9562 4.64549 44.0336 4.88906 43.9876L14.5283 42.169L14.7558 42.1261L14.9195 41.9624L43.4703 13.4116L44.0006 12.8813L43.4703 12.351L35.6497 4.53033ZM28.9486 12.292L35.1193 6.12132L41.8793 12.8813L35.7086 19.052L28.9486 12.292ZM27.888 13.3527L7.26265 33.978L5.69072 42.3099L14.0226 40.738L34.6479 20.1127L27.888 13.3527Z" fill="black"/>
</svg>
